<mxfile host="app.diagrams.net" modified="2023-03-31T11:16:39.583Z" agent="Mozilla/5.0 (Windows NT 10.0; Win64; x64) AppleWebKit/537.36 (KHTML, like Gecko) Chrome/111.0.0.0 Safari/537.36 Edg/111.0.1661.54" etag="UgBGC3g0lM4FKnbJOFX5" version="21.1.2" type="github">
  <diagram name="第 1 页" id="C2llVJUo4KI2Dm0yCDdT">
    <mxGraphModel dx="1290" dy="549" grid="1" gridSize="10" guides="1" tooltips="1" connect="1" arrows="1" fold="1" page="1" pageScale="1" pageWidth="827" pageHeight="1169" math="0" shadow="0">
      <root>
        <mxCell id="0" />
        <mxCell id="1" parent="0" />
        <mxCell id="EG13G6zJD2KqBIsS3SEV-3" value="用户" style="shape=umlActor;verticalLabelPosition=bottom;verticalAlign=top;html=1;outlineConnect=0;" parent="1" vertex="1">
          <mxGeometry x="270" y="480" width="60" height="100" as="geometry" />
        </mxCell>
        <mxCell id="EG13G6zJD2KqBIsS3SEV-6" value="管理员" style="shape=umlActor;verticalLabelPosition=bottom;verticalAlign=top;html=1;outlineConnect=0;" parent="1" vertex="1">
          <mxGeometry x="800" y="485" width="60" height="100" as="geometry" />
        </mxCell>
        <mxCell id="EG13G6zJD2KqBIsS3SEV-8" value="注册用户" style="ellipse;whiteSpace=wrap;html=1;" parent="1" vertex="1">
          <mxGeometry x="369" y="250" width="90" height="60" as="geometry" />
        </mxCell>
        <mxCell id="EG13G6zJD2KqBIsS3SEV-11" value="注销用户" style="ellipse;whiteSpace=wrap;html=1;" parent="1" vertex="1">
          <mxGeometry x="369" y="340" width="90" height="60" as="geometry" />
        </mxCell>
        <mxCell id="EG13G6zJD2KqBIsS3SEV-12" value="查询机票" style="ellipse;whiteSpace=wrap;html=1;" parent="1" vertex="1">
          <mxGeometry x="369" y="620" width="90" height="60" as="geometry" />
        </mxCell>
        <mxCell id="EG13G6zJD2KqBIsS3SEV-13" value="安排航班" style="ellipse;whiteSpace=wrap;html=1;" parent="1" vertex="1">
          <mxGeometry x="670" y="620" width="90" height="60" as="geometry" />
        </mxCell>
        <mxCell id="EG13G6zJD2KqBIsS3SEV-14" value="登录用户" style="ellipse;whiteSpace=wrap;html=1;" parent="1" vertex="1">
          <mxGeometry x="369" y="430" width="90" height="60" as="geometry" />
        </mxCell>
        <mxCell id="EG13G6zJD2KqBIsS3SEV-15" value="" style="endArrow=classic;html=1;rounded=0;entryX=0;entryY=0.5;entryDx=0;entryDy=0;" parent="1" target="EG13G6zJD2KqBIsS3SEV-8" edge="1">
          <mxGeometry width="50" height="50" relative="1" as="geometry">
            <mxPoint x="320" y="470" as="sourcePoint" />
            <mxPoint x="300" y="280" as="targetPoint" />
          </mxGeometry>
        </mxCell>
        <mxCell id="EG13G6zJD2KqBIsS3SEV-17" value="" style="endArrow=classic;html=1;rounded=0;entryX=0;entryY=0.5;entryDx=0;entryDy=0;" parent="1" source="EG13G6zJD2KqBIsS3SEV-3" target="EG13G6zJD2KqBIsS3SEV-11" edge="1">
          <mxGeometry width="50" height="50" relative="1" as="geometry">
            <mxPoint x="330" y="510" as="sourcePoint" />
            <mxPoint x="380" y="460" as="targetPoint" />
          </mxGeometry>
        </mxCell>
        <mxCell id="EG13G6zJD2KqBIsS3SEV-18" value="" style="endArrow=classic;html=1;rounded=0;entryX=0;entryY=0.5;entryDx=0;entryDy=0;" parent="1" target="EG13G6zJD2KqBIsS3SEV-14" edge="1">
          <mxGeometry width="50" height="50" relative="1" as="geometry">
            <mxPoint x="339" y="529.5" as="sourcePoint" />
            <mxPoint x="369" y="529.5" as="targetPoint" />
          </mxGeometry>
        </mxCell>
        <mxCell id="EG13G6zJD2KqBIsS3SEV-19" value="" style="endArrow=classic;html=1;rounded=0;entryX=0;entryY=0.5;entryDx=0;entryDy=0;" parent="1" target="EG13G6zJD2KqBIsS3SEV-12" edge="1">
          <mxGeometry width="50" height="50" relative="1" as="geometry">
            <mxPoint x="330" y="590" as="sourcePoint" />
            <mxPoint x="370" y="630" as="targetPoint" />
          </mxGeometry>
        </mxCell>
        <mxCell id="EG13G6zJD2KqBIsS3SEV-20" value="打印机票" style="ellipse;whiteSpace=wrap;html=1;" parent="1" vertex="1">
          <mxGeometry x="369" y="710" width="90" height="60" as="geometry" />
        </mxCell>
        <mxCell id="EG13G6zJD2KqBIsS3SEV-21" value="机票付款" style="ellipse;whiteSpace=wrap;html=1;" parent="1" vertex="1">
          <mxGeometry x="369" y="800" width="90" height="60" as="geometry" />
        </mxCell>
        <mxCell id="EG13G6zJD2KqBIsS3SEV-22" value="" style="endArrow=classic;html=1;rounded=0;entryX=0;entryY=0.5;entryDx=0;entryDy=0;" parent="1" target="EG13G6zJD2KqBIsS3SEV-20" edge="1">
          <mxGeometry width="50" height="50" relative="1" as="geometry">
            <mxPoint x="320" y="600" as="sourcePoint" />
            <mxPoint x="340" y="650" as="targetPoint" />
          </mxGeometry>
        </mxCell>
        <mxCell id="EG13G6zJD2KqBIsS3SEV-23" value="" style="endArrow=classic;html=1;rounded=0;entryX=0;entryY=0.5;entryDx=0;entryDy=0;" parent="1" target="EG13G6zJD2KqBIsS3SEV-21" edge="1">
          <mxGeometry width="50" height="50" relative="1" as="geometry">
            <mxPoint x="320" y="610" as="sourcePoint" />
            <mxPoint x="310" y="640" as="targetPoint" />
          </mxGeometry>
        </mxCell>
        <mxCell id="EG13G6zJD2KqBIsS3SEV-24" value="注册用户" style="ellipse;whiteSpace=wrap;html=1;" parent="1" vertex="1">
          <mxGeometry x="369" y="525" width="90" height="60" as="geometry" />
        </mxCell>
        <mxCell id="EG13G6zJD2KqBIsS3SEV-25" value="" style="endArrow=classic;html=1;rounded=0;" parent="1" edge="1">
          <mxGeometry width="50" height="50" relative="1" as="geometry">
            <mxPoint x="340" y="555" as="sourcePoint" />
            <mxPoint x="370" y="554.5" as="targetPoint" />
          </mxGeometry>
        </mxCell>
        <mxCell id="EG13G6zJD2KqBIsS3SEV-26" value="注册用户" style="ellipse;whiteSpace=wrap;html=1;" parent="1" vertex="1">
          <mxGeometry x="670" y="250" width="90" height="60" as="geometry" />
        </mxCell>
        <mxCell id="EG13G6zJD2KqBIsS3SEV-27" value="登录系统" style="ellipse;whiteSpace=wrap;html=1;" parent="1" vertex="1">
          <mxGeometry x="670" y="430" width="90" height="60" as="geometry" />
        </mxCell>
        <mxCell id="EG13G6zJD2KqBIsS3SEV-28" value="注册管理员" style="ellipse;whiteSpace=wrap;html=1;" parent="1" vertex="1">
          <mxGeometry x="670" y="525" width="90" height="60" as="geometry" />
        </mxCell>
        <mxCell id="y6OFLw9vU7j-9iI98Z35-2" value="找回密码" style="ellipse;whiteSpace=wrap;html=1;dashed=1;" parent="1" vertex="1">
          <mxGeometry x="510" y="390" width="90" height="60" as="geometry" />
        </mxCell>
        <mxCell id="y6OFLw9vU7j-9iI98Z35-8" value="" style="endArrow=classic;html=1;rounded=0;entryX=0;entryY=0.5;entryDx=0;entryDy=0;exitX=1;exitY=0.5;exitDx=0;exitDy=0;" parent="1" source="EG13G6zJD2KqBIsS3SEV-14" target="y6OFLw9vU7j-9iI98Z35-2" edge="1">
          <mxGeometry relative="1" as="geometry">
            <mxPoint x="470" y="470" as="sourcePoint" />
            <mxPoint x="570" y="470" as="targetPoint" />
          </mxGeometry>
        </mxCell>
        <mxCell id="y6OFLw9vU7j-9iI98Z35-9" value="&amp;lt;&amp;lt;include&amp;gt;&amp;gt;" style="edgeLabel;resizable=0;html=1;align=center;verticalAlign=middle;" parent="y6OFLw9vU7j-9iI98Z35-8" connectable="0" vertex="1">
          <mxGeometry relative="1" as="geometry" />
        </mxCell>
        <mxCell id="y6OFLw9vU7j-9iI98Z35-10" value="" style="endArrow=classic;html=1;rounded=0;entryX=1;entryY=0.5;entryDx=0;entryDy=0;" parent="1" target="y6OFLw9vU7j-9iI98Z35-2" edge="1">
          <mxGeometry relative="1" as="geometry">
            <mxPoint x="670" y="460" as="sourcePoint" />
            <mxPoint x="770" y="460" as="targetPoint" />
          </mxGeometry>
        </mxCell>
        <mxCell id="y6OFLw9vU7j-9iI98Z35-11" value="&amp;lt;&amp;lt;include&amp;gt;&amp;gt;" style="edgeLabel;resizable=0;html=1;align=center;verticalAlign=middle;" parent="y6OFLw9vU7j-9iI98Z35-10" connectable="0" vertex="1">
          <mxGeometry relative="1" as="geometry" />
        </mxCell>
        <mxCell id="y6OFLw9vU7j-9iI98Z35-12" value="输入密码" style="ellipse;whiteSpace=wrap;html=1;dashed=1;" parent="1" vertex="1">
          <mxGeometry x="510" y="480" width="90" height="60" as="geometry" />
        </mxCell>
        <mxCell id="y6OFLw9vU7j-9iI98Z35-13" value="" style="endArrow=classic;html=1;rounded=0;exitX=1;exitY=0.5;exitDx=0;exitDy=0;entryX=0;entryY=0.5;entryDx=0;entryDy=0;" parent="1" target="y6OFLw9vU7j-9iI98Z35-12" edge="1">
          <mxGeometry relative="1" as="geometry">
            <mxPoint x="450" y="480" as="sourcePoint" />
            <mxPoint x="510" y="510" as="targetPoint" />
          </mxGeometry>
        </mxCell>
        <mxCell id="y6OFLw9vU7j-9iI98Z35-14" value="&amp;lt;&amp;lt;include&amp;gt;&amp;gt;" style="edgeLabel;resizable=0;html=1;align=center;verticalAlign=middle;" parent="y6OFLw9vU7j-9iI98Z35-13" connectable="0" vertex="1">
          <mxGeometry relative="1" as="geometry" />
        </mxCell>
        <mxCell id="y6OFLw9vU7j-9iI98Z35-15" value="" style="endArrow=classic;html=1;rounded=0;entryX=1;entryY=0.5;entryDx=0;entryDy=0;" parent="1" source="EG13G6zJD2KqBIsS3SEV-27" target="y6OFLw9vU7j-9iI98Z35-12" edge="1">
          <mxGeometry relative="1" as="geometry">
            <mxPoint x="640" y="500" as="sourcePoint" />
            <mxPoint x="691" y="460" as="targetPoint" />
          </mxGeometry>
        </mxCell>
        <mxCell id="y6OFLw9vU7j-9iI98Z35-16" value="&amp;lt;&amp;lt;include&amp;gt;&amp;gt;" style="edgeLabel;resizable=0;html=1;align=center;verticalAlign=middle;" parent="y6OFLw9vU7j-9iI98Z35-15" connectable="0" vertex="1">
          <mxGeometry relative="1" as="geometry" />
        </mxCell>
        <mxCell id="y6OFLw9vU7j-9iI98Z35-18" value="" style="endArrow=classic;html=1;rounded=0;entryX=1;entryY=0.5;entryDx=0;entryDy=0;" parent="1" target="EG13G6zJD2KqBIsS3SEV-26" edge="1">
          <mxGeometry width="50" height="50" relative="1" as="geometry">
            <mxPoint x="800" y="490" as="sourcePoint" />
            <mxPoint x="850" y="440" as="targetPoint" />
          </mxGeometry>
        </mxCell>
        <mxCell id="y6OFLw9vU7j-9iI98Z35-19" value="" style="endArrow=classic;html=1;rounded=0;entryX=1;entryY=0.5;entryDx=0;entryDy=0;" parent="1" target="EG13G6zJD2KqBIsS3SEV-13" edge="1">
          <mxGeometry width="50" height="50" relative="1" as="geometry">
            <mxPoint x="800" y="600" as="sourcePoint" />
            <mxPoint x="970" y="450" as="targetPoint" />
            <Array as="points" />
          </mxGeometry>
        </mxCell>
        <mxCell id="y6OFLw9vU7j-9iI98Z35-20" value="" style="endArrow=classic;html=1;rounded=0;exitX=0;exitY=0.3333333333333333;exitDx=0;exitDy=0;exitPerimeter=0;" parent="1" source="EG13G6zJD2KqBIsS3SEV-6" edge="1">
          <mxGeometry width="50" height="50" relative="1" as="geometry">
            <mxPoint x="800" y="520" as="sourcePoint" />
            <mxPoint x="760" y="465" as="targetPoint" />
          </mxGeometry>
        </mxCell>
        <mxCell id="y6OFLw9vU7j-9iI98Z35-21" value="" style="endArrow=classic;html=1;rounded=0;" parent="1" edge="1">
          <mxGeometry width="50" height="50" relative="1" as="geometry">
            <mxPoint x="800" y="554.5" as="sourcePoint" />
            <mxPoint x="760" y="554.5" as="targetPoint" />
          </mxGeometry>
        </mxCell>
        <mxCell id="y6OFLw9vU7j-9iI98Z35-22" value="修改用户信息" style="ellipse;whiteSpace=wrap;html=1;" parent="1" vertex="1">
          <mxGeometry x="670" y="340" width="90" height="60" as="geometry" />
        </mxCell>
        <mxCell id="y6OFLw9vU7j-9iI98Z35-23" value="" style="endArrow=classic;html=1;rounded=0;" parent="1" edge="1">
          <mxGeometry width="50" height="50" relative="1" as="geometry">
            <mxPoint x="800" y="510" as="sourcePoint" />
            <mxPoint x="760" y="380" as="targetPoint" />
          </mxGeometry>
        </mxCell>
        <mxCell id="K-e-QyN7yzINLSVWqKfr-1" value="机票退款" style="ellipse;whiteSpace=wrap;html=1;" parent="1" vertex="1">
          <mxGeometry x="369" y="880" width="90" height="60" as="geometry" />
        </mxCell>
        <mxCell id="K-e-QyN7yzINLSVWqKfr-2" value="" style="endArrow=classic;html=1;rounded=0;entryX=0;entryY=0.5;entryDx=0;entryDy=0;" parent="1" target="K-e-QyN7yzINLSVWqKfr-1" edge="1">
          <mxGeometry width="50" height="50" relative="1" as="geometry">
            <mxPoint x="320" y="630" as="sourcePoint" />
            <mxPoint x="360" y="580" as="targetPoint" />
          </mxGeometry>
        </mxCell>
        <mxCell id="kI8QiPe1e6Zq5gu9wakf-1" value="安排航班" style="ellipse;whiteSpace=wrap;html=1;" vertex="1" parent="1">
          <mxGeometry x="670" y="620" width="90" height="60" as="geometry" />
        </mxCell>
        <mxCell id="kI8QiPe1e6Zq5gu9wakf-2" value="安排航班" style="ellipse;whiteSpace=wrap;html=1;" vertex="1" parent="1">
          <mxGeometry x="670" y="710" width="90" height="60" as="geometry" />
        </mxCell>
        <mxCell id="kI8QiPe1e6Zq5gu9wakf-3" value="" style="endArrow=classic;html=1;rounded=0;entryX=1;entryY=0.5;entryDx=0;entryDy=0;" edge="1" parent="1" target="kI8QiPe1e6Zq5gu9wakf-2">
          <mxGeometry width="50" height="50" relative="1" as="geometry">
            <mxPoint x="800" y="620" as="sourcePoint" />
            <mxPoint x="970" y="540" as="targetPoint" />
            <Array as="points" />
          </mxGeometry>
        </mxCell>
        <mxCell id="kI8QiPe1e6Zq5gu9wakf-4" value="查询用户" style="ellipse;whiteSpace=wrap;html=1;" vertex="1" parent="1">
          <mxGeometry x="670" y="710" width="90" height="60" as="geometry" />
        </mxCell>
        <mxCell id="kI8QiPe1e6Zq5gu9wakf-6" value="查询机票" style="ellipse;whiteSpace=wrap;html=1;" vertex="1" parent="1">
          <mxGeometry x="670" y="800" width="90" height="60" as="geometry" />
        </mxCell>
        <mxCell id="kI8QiPe1e6Zq5gu9wakf-7" value="" style="endArrow=classic;html=1;rounded=0;entryX=1;entryY=0.5;entryDx=0;entryDy=0;" edge="1" parent="1">
          <mxGeometry width="50" height="50" relative="1" as="geometry">
            <mxPoint x="800" y="640" as="sourcePoint" />
            <mxPoint x="760" y="830" as="targetPoint" />
            <Array as="points" />
          </mxGeometry>
        </mxCell>
        <mxCell id="kI8QiPe1e6Zq5gu9wakf-8" value="打印机票" style="ellipse;whiteSpace=wrap;html=1;" vertex="1" parent="1">
          <mxGeometry x="670" y="880" width="90" height="60" as="geometry" />
        </mxCell>
        <mxCell id="kI8QiPe1e6Zq5gu9wakf-9" value="" style="endArrow=classic;html=1;rounded=0;entryX=1;entryY=0.5;entryDx=0;entryDy=0;" edge="1" parent="1">
          <mxGeometry width="50" height="50" relative="1" as="geometry">
            <mxPoint x="800" y="670" as="sourcePoint" />
            <mxPoint x="760" y="910" as="targetPoint" />
            <Array as="points" />
          </mxGeometry>
        </mxCell>
      </root>
    </mxGraphModel>
  </diagram>
</mxfile>
